<svg width="48" height="48" viewBox="0 0 48 48" fill="none" xmlns="http://www.w3.org/2000/svg">
<path d="M48 24C48 37.2548 37.2548 48 24 48C10.7452 48 0 37.2548 0 24C0 10.7452 10.7452 0 24 0C37.2548 0 48 10.7452 48 24Z" fill="white"/>
<path d="M24 40C24 40 36 28.628 36 20C36 16.8174 34.7357 13.7652 32.4853 11.5147C30.2348 9.26428 27.1826 8 24 8C20.8174 8 17.7652 9.26428 15.5147 11.5147C13.2643 13.7652 12 16.8174 12 20C12 28.628 24 40 24 40ZM24 26C22.4087 26 20.8826 25.3679 19.7574 24.2426C18.6321 23.1174 18 21.5913 18 20C18 18.4087 18.6321 16.8826 19.7574 15.7574C20.8826 14.6321 22.4087 14 24 14C25.5913 14 27.1174 14.6321 28.2426 15.7574C29.3679 16.8826 30 18.4087 30 20C30 21.5913 29.3679 23.1174 28.2426 24.2426C27.1174 25.3679 25.5913 26 24 26Z" fill="#FF0000"/>
<path d="M24 40L23.828 40.1815L24 40.3444L24.172 40.1815L24 40ZM24 40C24.172 40.1815 24.172 40.1814 24.1722 40.1813L24.1726 40.1808L24.1744 40.1791L24.1812 40.1727L24.2075 40.1475C24.2306 40.1254 24.2646 40.0926 24.309 40.0495C24.3977 39.9633 24.5274 39.8361 24.6923 39.6714C25.0222 39.3419 25.4928 38.8619 26.0575 38.2592C27.1864 37.0541 28.6922 35.3565 30.1986 33.3874C31.7044 31.419 33.2146 29.1745 34.3492 26.8756C35.4825 24.5794 36.25 22.2111 36.25 20C36.25 16.7511 34.9594 13.6353 32.6621 11.3379C30.3647 9.04062 27.2489 7.75 24 7.75C20.7511 7.75 17.6353 9.04062 15.3379 11.3379C13.0406 13.6353 11.75 16.7511 11.75 20C11.75 22.2111 12.5175 24.5794 13.6508 26.8756C14.7854 29.1745 16.2956 31.419 17.8014 33.3874C19.3078 35.3565 20.8136 37.0541 21.9425 38.2592C22.5072 38.8619 22.9778 39.3419 23.3077 39.6714C23.4726 39.8361 23.6023 39.9633 23.691 40.0495C23.7354 40.0926 23.7694 40.1254 23.7925 40.1475L23.8188 40.1727L23.8256 40.1791L23.8274 40.1808L23.8278 40.1813C23.828 40.1814 23.828 40.1815 24 40ZM47.75 24C47.75 37.1168 37.1168 47.75 24 47.75C10.8832 47.75 0.25 37.1168 0.25 24C0.25 10.8832 10.8832 0.25 24 0.25C37.1168 0.25 47.75 10.8832 47.75 24ZM35.75 20C35.75 22.1029 35.0175 24.3916 33.9008 26.6543C32.7854 28.9142 31.2956 31.1305 29.8014 33.0836C28.3078 35.036 26.8136 36.7207 25.6925 37.9174C25.1322 38.5156 24.6653 38.9916 24.3389 39.3176C24.1988 39.4576 24.0846 39.5699 24 39.6525C23.9154 39.5699 23.8012 39.4576 23.6611 39.3176C23.3347 38.9916 22.8678 38.5156 22.3075 37.9174C21.1864 36.7207 19.6922 35.036 18.1986 33.0836C16.7044 31.1305 15.2146 28.9142 14.0992 26.6543C12.9825 24.3916 12.25 22.1029 12.25 20C12.25 16.8837 13.4879 13.895 15.6915 11.6915C17.895 9.48794 20.8837 8.25 24 8.25C27.1163 8.25 30.105 9.48794 32.3085 11.6915C34.5121 13.895 35.75 16.8837 35.75 20ZM24 25.75C22.475 25.75 21.0125 25.1442 19.9341 24.0659C18.8558 22.9875 18.25 21.525 18.25 20C18.25 18.475 18.8558 17.0125 19.9341 15.9341C21.0125 14.8558 22.475 14.25 24 14.25C25.525 14.25 26.9875 14.8558 28.0659 15.9341C29.1442 17.0125 29.75 18.475 29.75 20C29.75 21.525 29.1442 22.9875 28.0659 24.0659C26.9875 25.1442 25.525 25.75 24 25.75ZM19.5806 24.4194C20.7527 25.5915 22.3424 26.25 24 26.25C25.6576 26.25 27.2473 25.5915 28.4194 24.4194C29.5915 23.2473 30.25 21.6576 30.25 20C30.25 18.3424 29.5915 16.7527 28.4194 15.5806C27.2473 14.4085 25.6576 13.75 24 13.75C22.3424 13.75 20.7527 14.4085 19.5806 15.5806C18.4085 16.7527 17.75 18.3424 17.75 20C17.75 21.6576 18.4085 23.2473 19.5806 24.4194Z" stroke="black" stroke-width="0.5"/>
</svg>
