<svg width="48" height="48" viewBox="0 0 48 48" fill="none" xmlns="http://www.w3.org/2000/svg">
<path d="M48 24C48 37.2548 37.2548 48 24 48C10.7452 48 0 37.2548 0 24C0 10.7452 10.7452 0 24 0C37.2548 0 48 10.7452 48 24Z" fill="white"/>
<path d="M24 40C24 40 36 28.628 36 20C36 16.8174 34.7357 13.7652 32.4853 11.5147C30.2348 9.26428 27.1826 8 24 8C20.8174 8 17.7652 9.26428 15.5147 11.5147C13.2643 13.7652 12 16.8174 12 20C12 28.628 24 40 24 40ZM24 26C22.4087 26 20.8826 25.3679 19.7574 24.2426C18.6321 23.1174 18 21.5913 18 20C18 18.4087 18.6321 16.8826 19.7574 15.7574C20.8826 14.6321 22.4087 14 24 14C25.5913 14 27.1174 14.6321 28.2426 15.7574C29.3679 16.8826 30 18.4087 30 20C30 21.5913 29.3679 23.1174 28.2426 24.2426C27.1174 25.3679 25.5913 26 24 26Z" fill="#FF0000"/>
</svg>
