<svg width="261" height="50" viewBox="0 0 261 50" fill="none" xmlns="http://www.w3.org/2000/svg">
<mask id="path-1-inside-1_26_656" fill="white">
<path d="M0.0319824 3.28799H1.79998V38.284H22.392V40H0.0319824V3.28799Z"/>
<path d="M27.7833 29.912C27.7833 28.0053 28.2513 26.2547 29.1873 24.66C30.1233 23.0653 31.3887 21.8 32.9833 20.864C34.578 19.928 36.346 19.46 38.2873 19.46C40.298 19.46 42.1007 19.928 43.6953 20.864C45.29 21.8 46.538 23.0653 47.4393 24.66C48.3753 26.2547 48.8433 28.0053 48.8433 29.912C48.8433 31.8533 48.3753 33.6213 47.4393 35.216C46.538 36.8107 45.2727 38.076 43.6433 39.012C42.0487 39.9133 40.2633 40.364 38.2873 40.364C36.3113 40.364 34.526 39.9133 32.9313 39.012C31.3713 38.1107 30.1233 36.88 29.1873 35.32C28.2513 33.76 27.7833 31.9573 27.7833 29.912ZM29.4993 29.964C29.4993 31.628 29.8807 33.136 30.6433 34.488C31.4407 35.8053 32.498 36.88 33.8153 37.712C35.1673 38.5093 36.658 38.908 38.2873 38.908C39.9167 38.908 41.39 38.5093 42.7073 37.712C44.0593 36.9147 45.1167 35.84 45.8793 34.488C46.6767 33.136 47.0753 31.628 47.0753 29.964C47.0753 28.3 46.6767 26.792 45.8793 25.44C45.1167 24.088 44.0593 23.0133 42.7073 22.216C41.39 21.384 39.9167 20.968 38.2873 20.968C36.5887 20.968 35.0807 21.4013 33.7633 22.268C32.446 23.1 31.406 24.2093 30.6433 25.596C29.8807 26.9827 29.4993 28.4387 29.4993 29.964Z"/>
<path d="M71.5019 38.076C70.5659 38.7693 69.5259 39.324 68.3819 39.74C67.2726 40.156 66.0939 40.364 64.8459 40.364C62.8353 40.364 61.0326 39.9133 59.4379 39.012C57.8779 38.076 56.6299 36.8453 55.6939 35.32C54.7926 33.76 54.3419 31.992 54.3419 30.016C54.3419 28.04 54.8099 26.272 55.7459 24.712C56.6819 23.1173 57.9299 21.8693 59.4899 20.968C61.0846 20.032 62.8179 19.564 64.6899 19.564C66.0419 19.564 67.2899 19.772 68.4339 20.188C69.6126 20.604 70.6353 21.176 71.5019 21.904L70.5659 23.1C69.8033 22.476 68.9193 21.9733 67.9139 21.592C66.9433 21.2107 65.9033 21.02 64.7939 21.02C63.1646 21.02 61.6913 21.4187 60.3739 22.216C59.0566 23.0133 57.9993 24.1053 57.2019 25.492C56.4393 26.844 56.0579 28.352 56.0579 30.016C56.0579 31.6453 56.4393 33.136 57.2019 34.488C57.9993 35.84 59.0739 36.9147 60.4259 37.712C61.7779 38.5093 63.2686 38.908 64.8979 38.908C65.9726 38.908 66.9779 38.7347 67.9139 38.388C68.8846 38.0413 69.7513 37.5733 70.5139 36.984L71.5019 38.076Z"/>
<path d="M86.7265 40.364C84.8199 40.364 83.0865 39.9133 81.5265 39.012C80.0012 38.1107 78.7705 36.8973 77.8345 35.372C76.9332 33.812 76.4825 32.0267 76.4825 30.016C76.4825 27.7973 76.9505 25.908 77.8865 24.348C78.8572 22.7533 80.1399 21.5573 81.7345 20.76C83.3292 19.928 85.1319 19.512 87.1425 19.512C89.0492 19.512 90.8172 20.0667 92.4465 21.176C94.1105 22.2853 95.3239 23.7067 96.0865 25.44L95.8265 26.168L96.1385 20.032H97.5945V40H95.8785V33.5L96.1905 34.332C95.9132 35.1293 95.4625 35.892 94.8385 36.62C94.2492 37.3133 93.5212 37.9547 92.6545 38.544C91.8225 39.0987 90.9039 39.5493 89.8985 39.896C88.8932 40.208 87.8359 40.364 86.7265 40.364ZM87.0385 38.908C88.6332 38.908 90.0892 38.5613 91.4065 37.868C92.7239 37.14 93.7812 36.1693 94.5785 34.956C95.3759 33.708 95.8092 32.2693 95.8785 30.64V28.144C95.6012 26.792 95.0292 25.5787 94.1625 24.504C93.3305 23.4293 92.2905 22.58 91.0425 21.956C89.7945 21.2973 88.4425 20.968 86.9865 20.968C85.3919 20.968 83.9185 21.332 82.5665 22.06C81.2145 22.788 80.1399 23.828 79.3425 25.18C78.5799 26.532 78.1985 28.1093 78.1985 29.912C78.1985 31.576 78.5972 33.084 79.3945 34.436C80.1919 35.788 81.2492 36.88 82.5665 37.712C83.9185 38.5093 85.4092 38.908 87.0385 38.908Z"/>
<path d="M107.1 0.687988H108.816V40H107.1V0.687988Z"/>
<path d="M118.323 20.032H120.039V40H118.323V20.032Z"/>
<path d="M129.598 21.488C128.731 21.488 128.02 21.3147 127.466 20.968C126.946 20.5867 126.686 19.8587 126.686 18.784V18.16H128.09V18.784C128.09 19.1653 128.228 19.4773 128.506 19.72C128.818 19.928 129.268 20.032 129.858 20.032H142.806L129.494 38.908L129.13 38.492H142.598V40H126.79L140.206 20.968L140.622 21.488H129.598Z"/>
<path d="M157.82 40.364C155.914 40.364 154.18 39.9133 152.62 39.012C151.095 38.1107 149.864 36.8973 148.928 35.372C148.027 33.812 147.576 32.0267 147.576 30.016C147.576 27.7973 148.044 25.908 148.98 24.348C149.951 22.7533 151.234 21.5573 152.828 20.76C154.423 19.928 156.226 19.512 158.236 19.512C160.143 19.512 161.911 20.0667 163.54 21.176C165.204 22.2853 166.418 23.7067 167.18 25.44L166.92 26.168L167.232 20.032H168.688V40H166.972V33.5L167.284 34.332C167.007 35.1293 166.556 35.892 165.932 36.62C165.343 37.3133 164.615 37.9547 163.748 38.544C162.916 39.0987 161.998 39.5493 160.992 39.896C159.987 40.208 158.93 40.364 157.82 40.364ZM158.132 38.908C159.727 38.908 161.183 38.5613 162.5 37.868C163.818 37.14 164.875 36.1693 165.672 34.956C166.47 33.708 166.903 32.2693 166.972 30.64V28.144C166.695 26.792 166.123 25.5787 165.256 24.504C164.424 23.4293 163.384 22.58 162.136 21.956C160.888 21.2973 159.536 20.968 158.08 20.968C156.486 20.968 155.012 21.332 153.66 22.06C152.308 22.788 151.234 23.828 150.436 25.18C149.674 26.532 149.292 28.1093 149.292 29.912C149.292 31.576 149.691 33.084 150.488 34.436C151.286 35.788 152.343 36.88 153.66 37.712C155.012 38.5093 156.503 38.908 158.132 38.908Z"/>
<path d="M205.598 37.66C204.766 38.18 203.83 38.648 202.79 39.064C201.75 39.48 200.623 39.8093 199.41 40.052C198.231 40.2947 196.983 40.416 195.666 40.416C192.858 40.416 190.31 39.9307 188.022 38.96C185.769 37.9893 183.827 36.6547 182.198 34.956C180.569 33.2227 179.303 31.2467 178.402 29.028C177.535 26.7747 177.102 24.4 177.102 21.904C177.102 19.2347 177.57 16.756 178.506 14.468C179.477 12.1453 180.811 10.1173 182.51 8.38399C184.209 6.65065 186.185 5.29865 188.438 4.32799C190.691 3.35732 193.118 2.87199 195.718 2.87199C197.555 2.87199 199.289 3.13199 200.918 3.65199C202.582 4.13732 204.125 4.79599 205.546 5.62799L204.766 7.18799C203.483 6.42532 202.079 5.80132 200.554 5.31599C199.029 4.83065 197.417 4.58799 195.718 4.58799C193.43 4.58799 191.263 5.03865 189.218 5.93999C187.173 6.80665 185.387 8.03732 183.862 9.63199C182.337 11.192 181.123 13.0293 180.222 15.144C179.355 17.224 178.922 19.46 178.922 21.852C178.922 24.14 179.303 26.3067 180.066 28.352C180.863 30.3973 181.99 32.2 183.446 33.76C184.937 35.2853 186.705 36.4987 188.75 37.4C190.795 38.2667 193.101 38.7 195.666 38.7C197.399 38.7 199.029 38.4573 200.554 37.972C202.079 37.4867 203.466 36.8627 204.714 36.1L205.598 37.66Z"/>
<path d="M222.572 40.364C220.562 40.364 218.759 39.9133 217.164 39.012C215.604 38.076 214.356 36.828 213.42 35.268C212.519 33.6733 212.068 31.9053 212.068 29.964C212.068 28.0227 212.536 26.2547 213.472 24.66C214.408 23.0653 215.674 21.8 217.268 20.864C218.863 19.928 220.631 19.46 222.572 19.46C224.895 19.46 226.836 20.136 228.396 21.488C229.991 22.8053 231.152 24.504 231.88 26.584L214.096 33.656L213.576 32.356L230.372 25.7L229.956 26.324C229.298 24.868 228.327 23.6027 227.044 22.528C225.796 21.4533 224.271 20.916 222.468 20.916C220.839 20.916 219.366 21.3147 218.048 22.112C216.731 22.9093 215.674 24.0013 214.876 25.388C214.114 26.74 213.732 28.248 213.732 29.912C213.732 31.472 214.096 32.9453 214.824 34.332C215.587 35.684 216.627 36.776 217.944 37.608C219.262 38.44 220.804 38.856 222.572 38.856C223.751 38.856 224.86 38.648 225.9 38.232C226.975 37.7813 227.911 37.2093 228.708 36.516L229.696 37.712C228.726 38.5093 227.616 39.1507 226.368 39.636C225.155 40.1213 223.89 40.364 222.572 40.364Z"/>
<path d="M249.642 40.364C247.596 40.364 245.724 39.8267 244.026 38.752C242.327 37.6427 241.079 36.2213 240.282 34.488L240.594 33.396V49.568H238.878V19.928H240.438L240.594 26.948L240.282 25.44C241.114 23.7067 242.396 22.2853 244.13 21.176C245.863 20.0667 247.77 19.512 249.85 19.512C251.756 19.512 253.472 19.98 254.998 20.916C256.558 21.8173 257.788 23.0653 258.69 24.66C259.626 26.22 260.094 28.0053 260.094 30.016C260.094 31.992 259.626 33.76 258.69 35.32C257.754 36.88 256.488 38.1107 254.894 39.012C253.334 39.9133 251.583 40.364 249.642 40.364ZM249.382 38.908C251.046 38.908 252.554 38.5093 253.906 37.712C255.258 36.9147 256.332 35.84 257.13 34.488C257.927 33.136 258.326 31.6453 258.326 30.016C258.326 28.3173 257.927 26.792 257.13 25.44C256.332 24.0533 255.258 22.9613 253.906 22.164C252.588 21.3667 251.115 20.968 249.486 20.968C247.856 20.968 246.383 21.3667 245.066 22.164C243.748 22.9267 242.691 23.9493 241.894 25.232C241.096 26.5147 240.663 27.9533 240.594 29.548V30.588C240.663 32.148 241.096 33.5693 241.894 34.852C242.726 36.1 243.783 37.088 245.066 37.816C246.383 38.544 247.822 38.908 249.382 38.908Z"/>
<path d="M119 19C119 19 122 16.157 122 14C122 13.2044 121.684 12.4413 121.121 11.8787C120.559 11.3161 119.796 11 119 11C118.204 11 117.441 11.3161 116.879 11.8787C116.316 12.4413 116 13.2044 116 14C116 16.157 119 19 119 19ZM119 15.5C118.602 15.5 118.221 15.342 117.939 15.0607C117.658 14.7794 117.5 14.3978 117.5 14C117.5 13.6022 117.658 13.2206 117.939 12.9393C118.221 12.658 118.602 12.5 119 12.5C119.398 12.5 119.779 12.658 120.061 12.9393C120.342 13.2206 120.5 13.6022 120.5 14C120.5 14.3978 120.342 14.7794 120.061 15.0607C119.779 15.342 119.398 15.5 119 15.5Z"/>
</mask>
<path d="M0.0319824 3.28799H1.79998V38.284H22.392V40H0.0319824V3.28799Z" fill="black"/>
<path d="M27.7833 29.912C27.7833 28.0053 28.2513 26.2547 29.1873 24.66C30.1233 23.0653 31.3887 21.8 32.9833 20.864C34.578 19.928 36.346 19.46 38.2873 19.46C40.298 19.46 42.1007 19.928 43.6953 20.864C45.29 21.8 46.538 23.0653 47.4393 24.66C48.3753 26.2547 48.8433 28.0053 48.8433 29.912C48.8433 31.8533 48.3753 33.6213 47.4393 35.216C46.538 36.8107 45.2727 38.076 43.6433 39.012C42.0487 39.9133 40.2633 40.364 38.2873 40.364C36.3113 40.364 34.526 39.9133 32.9313 39.012C31.3713 38.1107 30.1233 36.88 29.1873 35.32C28.2513 33.76 27.7833 31.9573 27.7833 29.912ZM29.4993 29.964C29.4993 31.628 29.8807 33.136 30.6433 34.488C31.4407 35.8053 32.498 36.88 33.8153 37.712C35.1673 38.5093 36.658 38.908 38.2873 38.908C39.9167 38.908 41.39 38.5093 42.7073 37.712C44.0593 36.9147 45.1167 35.84 45.8793 34.488C46.6767 33.136 47.0753 31.628 47.0753 29.964C47.0753 28.3 46.6767 26.792 45.8793 25.44C45.1167 24.088 44.0593 23.0133 42.7073 22.216C41.39 21.384 39.9167 20.968 38.2873 20.968C36.5887 20.968 35.0807 21.4013 33.7633 22.268C32.446 23.1 31.406 24.2093 30.6433 25.596C29.8807 26.9827 29.4993 28.4387 29.4993 29.964Z" fill="black"/>
<path d="M71.5019 38.076C70.5659 38.7693 69.5259 39.324 68.3819 39.74C67.2726 40.156 66.0939 40.364 64.8459 40.364C62.8353 40.364 61.0326 39.9133 59.4379 39.012C57.8779 38.076 56.6299 36.8453 55.6939 35.32C54.7926 33.76 54.3419 31.992 54.3419 30.016C54.3419 28.04 54.8099 26.272 55.7459 24.712C56.6819 23.1173 57.9299 21.8693 59.4899 20.968C61.0846 20.032 62.8179 19.564 64.6899 19.564C66.0419 19.564 67.2899 19.772 68.4339 20.188C69.6126 20.604 70.6353 21.176 71.5019 21.904L70.5659 23.1C69.8033 22.476 68.9193 21.9733 67.9139 21.592C66.9433 21.2107 65.9033 21.02 64.7939 21.02C63.1646 21.02 61.6913 21.4187 60.3739 22.216C59.0566 23.0133 57.9993 24.1053 57.2019 25.492C56.4393 26.844 56.0579 28.352 56.0579 30.016C56.0579 31.6453 56.4393 33.136 57.2019 34.488C57.9993 35.84 59.0739 36.9147 60.4259 37.712C61.7779 38.5093 63.2686 38.908 64.8979 38.908C65.9726 38.908 66.9779 38.7347 67.9139 38.388C68.8846 38.0413 69.7513 37.5733 70.5139 36.984L71.5019 38.076Z" fill="black"/>
<path d="M86.7265 40.364C84.8199 40.364 83.0865 39.9133 81.5265 39.012C80.0012 38.1107 78.7705 36.8973 77.8345 35.372C76.9332 33.812 76.4825 32.0267 76.4825 30.016C76.4825 27.7973 76.9505 25.908 77.8865 24.348C78.8572 22.7533 80.1399 21.5573 81.7345 20.76C83.3292 19.928 85.1319 19.512 87.1425 19.512C89.0492 19.512 90.8172 20.0667 92.4465 21.176C94.1105 22.2853 95.3239 23.7067 96.0865 25.44L95.8265 26.168L96.1385 20.032H97.5945V40H95.8785V33.5L96.1905 34.332C95.9132 35.1293 95.4625 35.892 94.8385 36.62C94.2492 37.3133 93.5212 37.9547 92.6545 38.544C91.8225 39.0987 90.9039 39.5493 89.8985 39.896C88.8932 40.208 87.8359 40.364 86.7265 40.364ZM87.0385 38.908C88.6332 38.908 90.0892 38.5613 91.4065 37.868C92.7239 37.14 93.7812 36.1693 94.5785 34.956C95.3759 33.708 95.8092 32.2693 95.8785 30.64V28.144C95.6012 26.792 95.0292 25.5787 94.1625 24.504C93.3305 23.4293 92.2905 22.58 91.0425 21.956C89.7945 21.2973 88.4425 20.968 86.9865 20.968C85.3919 20.968 83.9185 21.332 82.5665 22.06C81.2145 22.788 80.1399 23.828 79.3425 25.18C78.5799 26.532 78.1985 28.1093 78.1985 29.912C78.1985 31.576 78.5972 33.084 79.3945 34.436C80.1919 35.788 81.2492 36.88 82.5665 37.712C83.9185 38.5093 85.4092 38.908 87.0385 38.908Z" fill="black"/>
<path d="M107.1 0.687988H108.816V40H107.1V0.687988Z" fill="black"/>
<path d="M118.323 20.032H120.039V40H118.323V20.032Z" fill="black"/>
<path d="M129.598 21.488C128.731 21.488 128.02 21.3147 127.466 20.968C126.946 20.5867 126.686 19.8587 126.686 18.784V18.16H128.09V18.784C128.09 19.1653 128.228 19.4773 128.506 19.72C128.818 19.928 129.268 20.032 129.858 20.032H142.806L129.494 38.908L129.13 38.492H142.598V40H126.79L140.206 20.968L140.622 21.488H129.598Z" fill="black"/>
<path d="M157.82 40.364C155.914 40.364 154.18 39.9133 152.62 39.012C151.095 38.1107 149.864 36.8973 148.928 35.372C148.027 33.812 147.576 32.0267 147.576 30.016C147.576 27.7973 148.044 25.908 148.98 24.348C149.951 22.7533 151.234 21.5573 152.828 20.76C154.423 19.928 156.226 19.512 158.236 19.512C160.143 19.512 161.911 20.0667 163.54 21.176C165.204 22.2853 166.418 23.7067 167.18 25.44L166.92 26.168L167.232 20.032H168.688V40H166.972V33.5L167.284 34.332C167.007 35.1293 166.556 35.892 165.932 36.62C165.343 37.3133 164.615 37.9547 163.748 38.544C162.916 39.0987 161.998 39.5493 160.992 39.896C159.987 40.208 158.93 40.364 157.82 40.364ZM158.132 38.908C159.727 38.908 161.183 38.5613 162.5 37.868C163.818 37.14 164.875 36.1693 165.672 34.956C166.47 33.708 166.903 32.2693 166.972 30.64V28.144C166.695 26.792 166.123 25.5787 165.256 24.504C164.424 23.4293 163.384 22.58 162.136 21.956C160.888 21.2973 159.536 20.968 158.08 20.968C156.486 20.968 155.012 21.332 153.66 22.06C152.308 22.788 151.234 23.828 150.436 25.18C149.674 26.532 149.292 28.1093 149.292 29.912C149.292 31.576 149.691 33.084 150.488 34.436C151.286 35.788 152.343 36.88 153.66 37.712C155.012 38.5093 156.503 38.908 158.132 38.908Z" fill="black"/>
<path d="M205.598 37.66C204.766 38.18 203.83 38.648 202.79 39.064C201.75 39.48 200.623 39.8093 199.41 40.052C198.231 40.2947 196.983 40.416 195.666 40.416C192.858 40.416 190.31 39.9307 188.022 38.96C185.769 37.9893 183.827 36.6547 182.198 34.956C180.569 33.2227 179.303 31.2467 178.402 29.028C177.535 26.7747 177.102 24.4 177.102 21.904C177.102 19.2347 177.57 16.756 178.506 14.468C179.477 12.1453 180.811 10.1173 182.51 8.38399C184.209 6.65065 186.185 5.29865 188.438 4.32799C190.691 3.35732 193.118 2.87199 195.718 2.87199C197.555 2.87199 199.289 3.13199 200.918 3.65199C202.582 4.13732 204.125 4.79599 205.546 5.62799L204.766 7.18799C203.483 6.42532 202.079 5.80132 200.554 5.31599C199.029 4.83065 197.417 4.58799 195.718 4.58799C193.43 4.58799 191.263 5.03865 189.218 5.93999C187.173 6.80665 185.387 8.03732 183.862 9.63199C182.337 11.192 181.123 13.0293 180.222 15.144C179.355 17.224 178.922 19.46 178.922 21.852C178.922 24.14 179.303 26.3067 180.066 28.352C180.863 30.3973 181.99 32.2 183.446 33.76C184.937 35.2853 186.705 36.4987 188.75 37.4C190.795 38.2667 193.101 38.7 195.666 38.7C197.399 38.7 199.029 38.4573 200.554 37.972C202.079 37.4867 203.466 36.8627 204.714 36.1L205.598 37.66Z" fill="black"/>
<path d="M222.572 40.364C220.562 40.364 218.759 39.9133 217.164 39.012C215.604 38.076 214.356 36.828 213.42 35.268C212.519 33.6733 212.068 31.9053 212.068 29.964C212.068 28.0227 212.536 26.2547 213.472 24.66C214.408 23.0653 215.674 21.8 217.268 20.864C218.863 19.928 220.631 19.46 222.572 19.46C224.895 19.46 226.836 20.136 228.396 21.488C229.991 22.8053 231.152 24.504 231.88 26.584L214.096 33.656L213.576 32.356L230.372 25.7L229.956 26.324C229.298 24.868 228.327 23.6027 227.044 22.528C225.796 21.4533 224.271 20.916 222.468 20.916C220.839 20.916 219.366 21.3147 218.048 22.112C216.731 22.9093 215.674 24.0013 214.876 25.388C214.114 26.74 213.732 28.248 213.732 29.912C213.732 31.472 214.096 32.9453 214.824 34.332C215.587 35.684 216.627 36.776 217.944 37.608C219.262 38.44 220.804 38.856 222.572 38.856C223.751 38.856 224.86 38.648 225.9 38.232C226.975 37.7813 227.911 37.2093 228.708 36.516L229.696 37.712C228.726 38.5093 227.616 39.1507 226.368 39.636C225.155 40.1213 223.89 40.364 222.572 40.364Z" fill="black"/>
<path d="M249.642 40.364C247.596 40.364 245.724 39.8267 244.026 38.752C242.327 37.6427 241.079 36.2213 240.282 34.488L240.594 33.396V49.568H238.878V19.928H240.438L240.594 26.948L240.282 25.44C241.114 23.7067 242.396 22.2853 244.13 21.176C245.863 20.0667 247.77 19.512 249.85 19.512C251.756 19.512 253.472 19.98 254.998 20.916C256.558 21.8173 257.788 23.0653 258.69 24.66C259.626 26.22 260.094 28.0053 260.094 30.016C260.094 31.992 259.626 33.76 258.69 35.32C257.754 36.88 256.488 38.1107 254.894 39.012C253.334 39.9133 251.583 40.364 249.642 40.364ZM249.382 38.908C251.046 38.908 252.554 38.5093 253.906 37.712C255.258 36.9147 256.332 35.84 257.13 34.488C257.927 33.136 258.326 31.6453 258.326 30.016C258.326 28.3173 257.927 26.792 257.13 25.44C256.332 24.0533 255.258 22.9613 253.906 22.164C252.588 21.3667 251.115 20.968 249.486 20.968C247.856 20.968 246.383 21.3667 245.066 22.164C243.748 22.9267 242.691 23.9493 241.894 25.232C241.096 26.5147 240.663 27.9533 240.594 29.548V30.588C240.663 32.148 241.096 33.5693 241.894 34.852C242.726 36.1 243.783 37.088 245.066 37.816C246.383 38.544 247.822 38.908 249.382 38.908Z" fill="black"/>
<path d="M119 19C119 19 122 16.157 122 14C122 13.2044 121.684 12.4413 121.121 11.8787C120.559 11.3161 119.796 11 119 11C118.204 11 117.441 11.3161 116.879 11.8787C116.316 12.4413 116 13.2044 116 14C116 16.157 119 19 119 19ZM119 15.5C118.602 15.5 118.221 15.342 117.939 15.0607C117.658 14.7794 117.5 14.3978 117.5 14C117.5 13.6022 117.658 13.2206 117.939 12.9393C118.221 12.658 118.602 12.5 119 12.5C119.398 12.5 119.779 12.658 120.061 12.9393C120.342 13.2206 120.5 13.6022 120.5 14C120.5 14.3978 120.342 14.7794 120.061 15.0607C119.779 15.342 119.398 15.5 119 15.5Z" fill="#FF0000"/>
<path d="M0.0319824 3.28799H1.79998V38.284H22.392V40H0.0319824V3.28799Z" stroke="black" stroke-width="0.2" mask="url(#path-1-inside-1_26_656)"/>
<path d="M27.7833 29.912C27.7833 28.0053 28.2513 26.2547 29.1873 24.66C30.1233 23.0653 31.3887 21.8 32.9833 20.864C34.578 19.928 36.346 19.46 38.2873 19.46C40.298 19.46 42.1007 19.928 43.6953 20.864C45.29 21.8 46.538 23.0653 47.4393 24.66C48.3753 26.2547 48.8433 28.0053 48.8433 29.912C48.8433 31.8533 48.3753 33.6213 47.4393 35.216C46.538 36.8107 45.2727 38.076 43.6433 39.012C42.0487 39.9133 40.2633 40.364 38.2873 40.364C36.3113 40.364 34.526 39.9133 32.9313 39.012C31.3713 38.1107 30.1233 36.88 29.1873 35.32C28.2513 33.76 27.7833 31.9573 27.7833 29.912ZM29.4993 29.964C29.4993 31.628 29.8807 33.136 30.6433 34.488C31.4407 35.8053 32.498 36.88 33.8153 37.712C35.1673 38.5093 36.658 38.908 38.2873 38.908C39.9167 38.908 41.39 38.5093 42.7073 37.712C44.0593 36.9147 45.1167 35.84 45.8793 34.488C46.6767 33.136 47.0753 31.628 47.0753 29.964C47.0753 28.3 46.6767 26.792 45.8793 25.44C45.1167 24.088 44.0593 23.0133 42.7073 22.216C41.39 21.384 39.9167 20.968 38.2873 20.968C36.5887 20.968 35.0807 21.4013 33.7633 22.268C32.446 23.1 31.406 24.2093 30.6433 25.596C29.8807 26.9827 29.4993 28.4387 29.4993 29.964Z" stroke="black" stroke-width="0.2" mask="url(#path-1-inside-1_26_656)"/>
<path d="M71.5019 38.076C70.5659 38.7693 69.5259 39.324 68.3819 39.74C67.2726 40.156 66.0939 40.364 64.8459 40.364C62.8353 40.364 61.0326 39.9133 59.4379 39.012C57.8779 38.076 56.6299 36.8453 55.6939 35.32C54.7926 33.76 54.3419 31.992 54.3419 30.016C54.3419 28.04 54.8099 26.272 55.7459 24.712C56.6819 23.1173 57.9299 21.8693 59.4899 20.968C61.0846 20.032 62.8179 19.564 64.6899 19.564C66.0419 19.564 67.2899 19.772 68.4339 20.188C69.6126 20.604 70.6353 21.176 71.5019 21.904L70.5659 23.1C69.8033 22.476 68.9193 21.9733 67.9139 21.592C66.9433 21.2107 65.9033 21.02 64.7939 21.02C63.1646 21.02 61.6913 21.4187 60.3739 22.216C59.0566 23.0133 57.9993 24.1053 57.2019 25.492C56.4393 26.844 56.0579 28.352 56.0579 30.016C56.0579 31.6453 56.4393 33.136 57.2019 34.488C57.9993 35.84 59.0739 36.9147 60.4259 37.712C61.7779 38.5093 63.2686 38.908 64.8979 38.908C65.9726 38.908 66.9779 38.7347 67.9139 38.388C68.8846 38.0413 69.7513 37.5733 70.5139 36.984L71.5019 38.076Z" stroke="black" stroke-width="0.2" mask="url(#path-1-inside-1_26_656)"/>
<path d="M86.7265 40.364C84.8199 40.364 83.0865 39.9133 81.5265 39.012C80.0012 38.1107 78.7705 36.8973 77.8345 35.372C76.9332 33.812 76.4825 32.0267 76.4825 30.016C76.4825 27.7973 76.9505 25.908 77.8865 24.348C78.8572 22.7533 80.1399 21.5573 81.7345 20.76C83.3292 19.928 85.1319 19.512 87.1425 19.512C89.0492 19.512 90.8172 20.0667 92.4465 21.176C94.1105 22.2853 95.3239 23.7067 96.0865 25.44L95.8265 26.168L96.1385 20.032H97.5945V40H95.8785V33.5L96.1905 34.332C95.9132 35.1293 95.4625 35.892 94.8385 36.62C94.2492 37.3133 93.5212 37.9547 92.6545 38.544C91.8225 39.0987 90.9039 39.5493 89.8985 39.896C88.8932 40.208 87.8359 40.364 86.7265 40.364ZM87.0385 38.908C88.6332 38.908 90.0892 38.5613 91.4065 37.868C92.7239 37.14 93.7812 36.1693 94.5785 34.956C95.3759 33.708 95.8092 32.2693 95.8785 30.64V28.144C95.6012 26.792 95.0292 25.5787 94.1625 24.504C93.3305 23.4293 92.2905 22.58 91.0425 21.956C89.7945 21.2973 88.4425 20.968 86.9865 20.968C85.3919 20.968 83.9185 21.332 82.5665 22.06C81.2145 22.788 80.1399 23.828 79.3425 25.18C78.5799 26.532 78.1985 28.1093 78.1985 29.912C78.1985 31.576 78.5972 33.084 79.3945 34.436C80.1919 35.788 81.2492 36.88 82.5665 37.712C83.9185 38.5093 85.4092 38.908 87.0385 38.908Z" stroke="black" stroke-width="0.2" mask="url(#path-1-inside-1_26_656)"/>
<path d="M107.1 0.687988H108.816V40H107.1V0.687988Z" stroke="black" stroke-width="0.2" mask="url(#path-1-inside-1_26_656)"/>
<path d="M118.323 20.032H120.039V40H118.323V20.032Z" stroke="black" stroke-width="0.2" mask="url(#path-1-inside-1_26_656)"/>
<path d="M129.598 21.488C128.731 21.488 128.02 21.3147 127.466 20.968C126.946 20.5867 126.686 19.8587 126.686 18.784V18.16H128.09V18.784C128.09 19.1653 128.228 19.4773 128.506 19.72C128.818 19.928 129.268 20.032 129.858 20.032H142.806L129.494 38.908L129.13 38.492H142.598V40H126.79L140.206 20.968L140.622 21.488H129.598Z" stroke="black" stroke-width="0.2" mask="url(#path-1-inside-1_26_656)"/>
<path d="M157.82 40.364C155.914 40.364 154.18 39.9133 152.62 39.012C151.095 38.1107 149.864 36.8973 148.928 35.372C148.027 33.812 147.576 32.0267 147.576 30.016C147.576 27.7973 148.044 25.908 148.98 24.348C149.951 22.7533 151.234 21.5573 152.828 20.76C154.423 19.928 156.226 19.512 158.236 19.512C160.143 19.512 161.911 20.0667 163.54 21.176C165.204 22.2853 166.418 23.7067 167.18 25.44L166.92 26.168L167.232 20.032H168.688V40H166.972V33.5L167.284 34.332C167.007 35.1293 166.556 35.892 165.932 36.62C165.343 37.3133 164.615 37.9547 163.748 38.544C162.916 39.0987 161.998 39.5493 160.992 39.896C159.987 40.208 158.93 40.364 157.82 40.364ZM158.132 38.908C159.727 38.908 161.183 38.5613 162.5 37.868C163.818 37.14 164.875 36.1693 165.672 34.956C166.47 33.708 166.903 32.2693 166.972 30.64V28.144C166.695 26.792 166.123 25.5787 165.256 24.504C164.424 23.4293 163.384 22.58 162.136 21.956C160.888 21.2973 159.536 20.968 158.08 20.968C156.486 20.968 155.012 21.332 153.66 22.06C152.308 22.788 151.234 23.828 150.436 25.18C149.674 26.532 149.292 28.1093 149.292 29.912C149.292 31.576 149.691 33.084 150.488 34.436C151.286 35.788 152.343 36.88 153.66 37.712C155.012 38.5093 156.503 38.908 158.132 38.908Z" stroke="black" stroke-width="0.2" mask="url(#path-1-inside-1_26_656)"/>
<path d="M205.598 37.66C204.766 38.18 203.83 38.648 202.79 39.064C201.75 39.48 200.623 39.8093 199.41 40.052C198.231 40.2947 196.983 40.416 195.666 40.416C192.858 40.416 190.31 39.9307 188.022 38.96C185.769 37.9893 183.827 36.6547 182.198 34.956C180.569 33.2227 179.303 31.2467 178.402 29.028C177.535 26.7747 177.102 24.4 177.102 21.904C177.102 19.2347 177.57 16.756 178.506 14.468C179.477 12.1453 180.811 10.1173 182.51 8.38399C184.209 6.65065 186.185 5.29865 188.438 4.32799C190.691 3.35732 193.118 2.87199 195.718 2.87199C197.555 2.87199 199.289 3.13199 200.918 3.65199C202.582 4.13732 204.125 4.79599 205.546 5.62799L204.766 7.18799C203.483 6.42532 202.079 5.80132 200.554 5.31599C199.029 4.83065 197.417 4.58799 195.718 4.58799C193.43 4.58799 191.263 5.03865 189.218 5.93999C187.173 6.80665 185.387 8.03732 183.862 9.63199C182.337 11.192 181.123 13.0293 180.222 15.144C179.355 17.224 178.922 19.46 178.922 21.852C178.922 24.14 179.303 26.3067 180.066 28.352C180.863 30.3973 181.99 32.2 183.446 33.76C184.937 35.2853 186.705 36.4987 188.75 37.4C190.795 38.2667 193.101 38.7 195.666 38.7C197.399 38.7 199.029 38.4573 200.554 37.972C202.079 37.4867 203.466 36.8627 204.714 36.1L205.598 37.66Z" stroke="black" stroke-width="0.2" mask="url(#path-1-inside-1_26_656)"/>
<path d="M222.572 40.364C220.562 40.364 218.759 39.9133 217.164 39.012C215.604 38.076 214.356 36.828 213.42 35.268C212.519 33.6733 212.068 31.9053 212.068 29.964C212.068 28.0227 212.536 26.2547 213.472 24.66C214.408 23.0653 215.674 21.8 217.268 20.864C218.863 19.928 220.631 19.46 222.572 19.46C224.895 19.46 226.836 20.136 228.396 21.488C229.991 22.8053 231.152 24.504 231.88 26.584L214.096 33.656L213.576 32.356L230.372 25.7L229.956 26.324C229.298 24.868 228.327 23.6027 227.044 22.528C225.796 21.4533 224.271 20.916 222.468 20.916C220.839 20.916 219.366 21.3147 218.048 22.112C216.731 22.9093 215.674 24.0013 214.876 25.388C214.114 26.74 213.732 28.248 213.732 29.912C213.732 31.472 214.096 32.9453 214.824 34.332C215.587 35.684 216.627 36.776 217.944 37.608C219.262 38.44 220.804 38.856 222.572 38.856C223.751 38.856 224.86 38.648 225.9 38.232C226.975 37.7813 227.911 37.2093 228.708 36.516L229.696 37.712C228.726 38.5093 227.616 39.1507 226.368 39.636C225.155 40.1213 223.89 40.364 222.572 40.364Z" stroke="black" stroke-width="0.2" mask="url(#path-1-inside-1_26_656)"/>
<path d="M249.642 40.364C247.596 40.364 245.724 39.8267 244.026 38.752C242.327 37.6427 241.079 36.2213 240.282 34.488L240.594 33.396V49.568H238.878V19.928H240.438L240.594 26.948L240.282 25.44C241.114 23.7067 242.396 22.2853 244.13 21.176C245.863 20.0667 247.77 19.512 249.85 19.512C251.756 19.512 253.472 19.98 254.998 20.916C256.558 21.8173 257.788 23.0653 258.69 24.66C259.626 26.22 260.094 28.0053 260.094 30.016C260.094 31.992 259.626 33.76 258.69 35.32C257.754 36.88 256.488 38.1107 254.894 39.012C253.334 39.9133 251.583 40.364 249.642 40.364ZM249.382 38.908C251.046 38.908 252.554 38.5093 253.906 37.712C255.258 36.9147 256.332 35.84 257.13 34.488C257.927 33.136 258.326 31.6453 258.326 30.016C258.326 28.3173 257.927 26.792 257.13 25.44C256.332 24.0533 255.258 22.9613 253.906 22.164C252.588 21.3667 251.115 20.968 249.486 20.968C247.856 20.968 246.383 21.3667 245.066 22.164C243.748 22.9267 242.691 23.9493 241.894 25.232C241.096 26.5147 240.663 27.9533 240.594 29.548V30.588C240.663 32.148 241.096 33.5693 241.894 34.852C242.726 36.1 243.783 37.088 245.066 37.816C246.383 38.544 247.822 38.908 249.382 38.908Z" stroke="black" stroke-width="0.2" mask="url(#path-1-inside-1_26_656)"/>
<path d="M119 19C119 19 122 16.157 122 14C122 13.2044 121.684 12.4413 121.121 11.8787C120.559 11.3161 119.796 11 119 11C118.204 11 117.441 11.3161 116.879 11.8787C116.316 12.4413 116 13.2044 116 14C116 16.157 119 19 119 19ZM119 15.5C118.602 15.5 118.221 15.342 117.939 15.0607C117.658 14.7794 117.5 14.3978 117.5 14C117.5 13.6022 117.658 13.2206 117.939 12.9393C118.221 12.658 118.602 12.5 119 12.5C119.398 12.5 119.779 12.658 120.061 12.9393C120.342 13.2206 120.5 13.6022 120.5 14C120.5 14.3978 120.342 14.7794 120.061 15.0607C119.779 15.342 119.398 15.5 119 15.5Z" stroke="black" stroke-width="0.2" mask="url(#path-1-inside-1_26_656)"/>
</svg>
